<svg preserveAspectRatio="none" width="100%" height="100%" overflow="visible" style="display: block;" viewBox="0 0 168 228.609" fill="none" xmlns="http://www.w3.org/2000/svg">
<path id="Union" fill-rule="evenodd" clip-rule="evenodd" d="M84 12C44.2355 12 12 44.2355 12 84C12 123.764 44.2355 156 84 156C123.764 156 156 123.764 156 84C156 44.2355 123.764 12 84 12ZM0 84C0 37.6081 37.6081 0 84 0C130.392 0 168 37.6081 168 84C168 130.392 130.392 168 84 168C37.6081 168 0 130.392 0 84ZM69.4045 64.0224C70.5941 65.1014 70.5941 66.8508 69.4045 67.9298C66.8588 70.2389 63.8367 72.0706 60.5106 73.3203C57.1846 74.5699 53.6197 75.2131 50.0196 75.2131C46.4195 75.2131 42.8546 74.5699 39.5286 73.3203C36.2025 72.0706 33.1804 70.2389 30.6347 67.9298C29.4452 66.8508 29.4452 65.1014 30.6347 64.0224C31.8243 62.9434 33.7529 62.9434 34.9425 64.0224C36.9224 65.8184 39.273 67.243 41.8599 68.215C44.4469 69.1869 47.2195 69.6872 50.0196 69.6872C52.8197 69.6872 55.5924 69.1869 58.1793 68.215C60.7662 67.243 63.1168 65.8184 65.0968 64.0224C66.2863 62.9434 68.215 62.9434 69.4045 64.0224ZM136.85 64.0224C138.04 65.1014 138.04 66.8508 136.85 67.9298C134.305 70.2389 131.283 72.0706 127.957 73.3203C124.63 74.5699 121.066 75.2131 117.465 75.2131C113.865 75.2131 110.301 74.5699 106.974 73.3203C103.648 72.0706 100.626 70.2389 98.0806 67.9298C96.891 66.8508 96.891 65.1014 98.0806 64.0224C99.2701 62.9434 101.199 62.9434 102.388 64.0224C104.368 65.8184 106.719 67.243 109.306 68.215C111.893 69.1869 114.665 69.6872 117.465 69.6872C120.266 69.6872 123.038 69.1869 125.625 68.215C128.212 67.243 130.563 65.8184 132.543 64.0224C133.732 62.9434 135.661 62.9434 136.85 64.0224ZM48.4137 122.919C47.5777 124.364 48.0487 126.226 49.4658 127.078C50.8829 127.931 52.7093 127.45 53.5454 126.006C56.4387 121.006 60.56 116.861 65.5031 113.98C70.4462 111.099 76.0404 109.58 81.7345 109.574C87.4286 109.568 93.0261 111.074 97.9751 113.945C102.924 116.816 107.054 120.951 109.958 125.945C110.797 127.387 112.624 127.864 114.04 127.008C115.455 126.153 115.922 124.29 115.083 122.847C111.651 116.946 106.771 112.058 100.922 108.666C95.0727 105.273 88.4576 103.493 81.7282 103.5C74.9988 103.507 68.3874 105.302 62.5456 108.707C56.7037 112.113 51.8331 117.011 48.4137 122.919ZM121 93C121 92.6598 120.809 91.9408 120.269 90.8467C119.763 89.8222 119.069 88.6972 118.345 87.6299C117.882 86.9483 117.417 86.3061 117 85.7471C116.583 86.3061 116.118 86.9483 115.655 87.6299C114.931 88.6972 114.237 89.8222 113.731 90.8467C113.191 91.9408 113 92.6598 113 93C113 95.2091 114.791 97 117 97C119.209 97 121 95.2091 121 93ZM125 93C125 97.4183 121.418 101 117 101C112.582 101 109 97.4183 109 93C109 91.6834 109.559 90.2615 110.144 89.0762C110.763 87.8214 111.569 86.5281 112.345 85.3848C113.125 84.2344 113.902 83.1967 114.481 82.4492C114.772 82.0745 115.015 81.7697 115.187 81.5576C115.26 81.4667 115.321 81.3928 115.366 81.3374L115.368 81.3358L115.388 81.3115L115.443 81.2441L115.463 81.2207L115.464 81.2188H115.465V81.2178L117 79.3799L118.535 81.2178V81.2188H118.536L118.537 81.2207L118.557 81.2441L118.612 81.3115L118.632 81.3358L118.634 81.3374C118.679 81.3928 118.74 81.4667 118.813 81.5576C118.985 81.7697 119.228 82.0745 119.519 82.4492C120.098 83.1967 120.875 84.2344 121.655 85.3848C122.431 86.5281 123.237 87.8214 123.856 89.0762C124.441 90.2615 125 91.6834 125 93ZM35.8125 220.992C45.8672 220.992 52.125 214.266 52.125 203.508V203.461C52.125 192.727 45.8438 186 35.8125 186C25.8047 186 19.5 192.703 19.5 203.461V203.508C19.5 214.266 25.7578 220.992 35.8125 220.992ZM35.8125 214.992C30.2578 214.992 26.7188 210.586 26.7188 203.508V203.461C26.7188 196.383 30.2812 192 35.8125 192C41.3672 192 44.9062 196.406 44.9062 203.461V203.508C44.9062 210.516 41.4375 214.992 35.8125 214.992ZM67.6406 220.922C75.2344 220.922 80.0859 216.047 80.0859 207.844V207.797C80.0859 199.664 75.1406 194.766 67.6172 194.766C60.1172 194.766 55.1953 199.711 55.1953 207.797V207.844C55.1953 216.023 60 220.922 67.6406 220.922ZM67.6641 215.555C64.2891 215.555 62.1562 212.766 62.1562 207.844V207.797C62.1562 202.945 64.3125 200.133 67.6172 200.133C70.9453 200.133 73.125 202.945 73.125 207.797V207.844C73.125 212.742 70.9922 215.555 67.6641 215.555ZM90.4688 228.609H83.625V195.281H90.4688V199.664H90.6328C91.9922 196.617 94.7344 194.766 98.2969 194.766C104.672 194.766 108.562 199.641 108.562 207.82V207.844C108.562 216 104.672 220.922 98.3906 220.922C94.8047 220.922 91.9688 219.094 90.6094 216.117H90.4688V228.609ZM90.4453 207.867C90.4453 212.391 92.7188 215.25 96.0469 215.25C99.4453 215.25 101.602 212.414 101.602 207.844V207.82C101.602 203.227 99.4453 200.438 96.0469 200.438C92.7188 200.438 90.4453 203.297 90.4453 207.844V207.867ZM122.461 220.922C128.93 220.922 133.453 217.688 133.453 212.766V212.742C133.453 209.039 131.297 206.977 126.047 205.875L121.781 204.961C119.25 204.422 118.383 203.578 118.383 202.289V202.266C118.383 200.648 119.859 199.594 122.227 199.594C124.758 199.594 126.234 200.953 126.469 202.758L126.492 202.945H132.797V202.711C132.633 198.305 128.906 194.766 122.227 194.766C115.828 194.766 111.703 197.859 111.703 202.641V202.664C111.703 206.414 114.164 208.852 119.039 209.883L123.305 210.773C125.766 211.312 126.609 212.086 126.609 213.422V213.445C126.609 215.062 125.039 216.07 122.461 216.07C119.719 216.07 118.242 214.922 117.797 212.953L117.75 212.742H111.07L111.094 212.953C111.633 217.711 115.5 220.922 122.461 220.922ZM145.148 209.039H139.242L138.68 186.586H145.711L145.148 209.039ZM146.016 217.008C146.016 219.07 144.328 220.688 142.195 220.688C140.062 220.688 138.375 219.07 138.375 217.008C138.375 214.945 140.062 213.328 142.195 213.328C144.328 213.328 146.016 214.945 146.016 217.008Z" fill="var(--fill-0, #666666)"/>
</svg>
